1600 0 10 0           
3 SDE 19 ACIS 30.0.1 Unknown 24 Sun Aug 17 01:46:48 2025 
1 9.9999999999999995e-07 1e-10 
eye_refinement $10 -1 @5 grid  3 @3 tri 1 @4 surf 0 @3 adj 0 @4 grad 0 @9 postcheck 0 @4 stol 0 @4 ntol 15 @4 dsil 0 @8 flatness 0 @7 pixarea 0 @4 hmax 0 @6 gridar 0 @5 mgrid 2048 @5 ugrid 0 @5 vgrid 0 @10 end_fields #
wcs $11 -1 1 0 0 0 1 0 0 0 1 0 0 0 1 no_rotate no_reflect no_shear #
wcs $12 -1 0 1 0 0 0 1 1 0 0 0 0 0 1 rotate no_reflect no_shear #
wcs $13 -1 1 0 0 -0 0 1 0 -1 0 0 0 0 1 rotate no_reflect no_shear #
body $14 -1 -1 $-1 $15 $-1 $16 T 0 0 0 0.12 0.040000000000000001 0 #
body $17 -1 -1 $-1 $18 $-1 $19 T 0.050000000000000003 0.040000000000000001 0 0.070000000000000007 0.050000000000000003 0 #
body $20 -1 -1 $-1 $21 $-1 $-1 T 0.070000000000000007 0.025000000000000001 0 0.12 0.040000000000000001 0 #
body $22 -1 -1 $-1 $23 $-1 $-1 T 0.070000000000000007 0.025000000000000001 0 0.12 0.040000000000000001 0 #
body $24 -1 -1 $-1 $25 $-1 $-1 T 0 0.025000000000000001 0 0.050000000000000003 0.040000000000000001 0 #
body $26 -1 -1 $-1 $27 $-1 $-1 T 0.029999999999999999 0.025000000000000001 0 0.089999999999999997 0.040000000000000001 0 #
name_attrib-gen-attrib $-1 -1 $-1 $-1 $0 2 1 1 1 1 1 1 1 1 1 1 1 1 1 0 1 1 1 @7 sde-ref #
entity_attrib-name_attrib-gen-attrib $-1 -1 $-1 $-1 $1 2 1 1 2 1 1 1 1 1 1 1 1 0 1 0 1 1 1 @4 base $1 #
entity_attrib-name_attrib-gen-attrib $-1 -1 $-1 $-1 $2 2 1 1 2 1 1 1 1 1 1 1 1 0 1 0 1 1 1 @5 wp_yz $1 #
entity_attrib-name_attrib-gen-attrib $-1 -1 $-1 $-1 $3 2 1 1 2 1 1 1 1 1 1 1 1 0 1 0 1 1 1 @5 wp_xz $1 #
string_attrib-name_attrib-gen-attrib $-1 -1 $28 $-1 $4 2 1 2 1 1 1 1 1 1 1 1 1 1 1 0 1 1 1 @12 transmission @5 black #
lump $-1 -1 -1 $-1 $-1 $29 $4 T 0 0 0 0.12 0.040000000000000001 0 #
transform $-1 -1 1 0 0 0 1 0 0 0 1 0 0 0 1 no_rotate no_reflect no_shear #
string_attrib-name_attrib-gen-attrib $-1 -1 $30 $-1 $5 2 1 2 1 1 1 1 1 1 1 1 1 1 1 0 1 1 1 @12 transmission @5 black #
lump $-1 -1 -1 $-1 $-1 $31 $5 T 0.050000000000000003 0.040000000000000001 0 0.070000000000000007 0.050000000000000003 0 #
transform $-1 -1 1 0 0 0 1 0 0 0 1 0 0 0 1 no_rotate no_reflect no_shear #
string_attrib-name_attrib-gen-attrib $-1 -1 $32 $-1 $6 2 1 2 1 1 1 1 1 1 1 1 1 1 1 0 1 1 1 @3 DRS @12 RefEvalWin_1 #
lump $-1 -1 -1 $-1 $-1 $33 $6 T 0.070000000000000007 0.025000000000000001 0 0.12 0.040000000000000001 0 #
string_attrib-name_attrib-gen-attrib $-1 -1 $34 $-1 $7 2 1 2 1 1 1 1 1 1 1 1 1 1 1 0 1 1 1 @3 DRS @12 RefEvalWin_2 #
lump $-1 -1 -1 $-1 $-1 $35 $7 T 0.070000000000000007 0.025000000000000001 0 0.12 0.040000000000000001 0 #
string_attrib-name_attrib-gen-attrib $-1 -1 $36 $-1 $8 2 1 2 1 1 1 1 1 1 1 1 1 1 1 0 1 1 1 @3 DRS @12 RefEvalWin_3 #
lump $-1 -1 -1 $-1 $-1 $37 $8 T 0 0.025000000000000001 0 0.050000000000000003 0.040000000000000001 0 #
string_attrib-name_attrib-gen-attrib $-1 -1 $38 $-1 $9 2 1 2 1 1 1 1 1 1 1 1 1 1 1 0 1 1 1 @3 DRS @12 RefEvalWin_4 #
lump $-1 -1 -1 $-1 $-1 $39 $9 T 0.029999999999999999 0.025000000000000001 0 0.089999999999999997 0.040000000000000001 0 #
string_attrib-name_attrib-gen-attrib $-1 -1 $40 $14 $4 2 1 2 1 1 1 1 1 1 1 1 1 1 1 0 1 1 1 @6 region @8 region_1 #
shell $-1 -1 -1 $-1 $-1 $-1 $41 $-1 $15 T 0 0 0 0.12 0.040000000000000001 0 #
string_attrib-name_attrib-gen-attrib $-1 -1 $42 $17 $5 2 1 2 1 1 1 1 1 1 1 1 1 1 1 0 1 1 1 @6 region @8 region_2 #
shell $-1 -1 -1 $-1 $-1 $-1 $43 $-1 $18 T 0.050000000000000003 0.040000000000000001 0 0.070000000000000007 0.050000000000000003 0 #
string_attrib-name_attrib-gen-attrib $-1 -1 $44 $20 $6 2 1 2 1 1 1 1 1 1 1 1 1 1 1 0 1 1 1 @12 transmission @4 gray #
shell $-1 -1 -1 $-1 $-1 $-1 $45 $-1 $21 T 0.070000000000000007 0.025000000000000001 0 0.12 0.040000000000000001 0 #
string_attrib-name_attrib-gen-attrib $-1 -1 $46 $22 $7 2 1 2 1 1 1 1 1 1 1 1 1 1 1 0 1 1 1 @12 transmission @4 gray #
shell $-1 -1 -1 $-1 $-1 $-1 $47 $-1 $23 T 0.070000000000000007 0.025000000000000001 0 0.12 0.040000000000000001 0 #
string_attrib-name_attrib-gen-attrib $-1 -1 $48 $24 $8 2 1 2 1 1 1 1 1 1 1 1 1 1 1 0 1 1 1 @12 transmission @4 gray #
shell $-1 -1 -1 $-1 $-1 $-1 $49 $-1 $25 T 0 0.025000000000000001 0 0.050000000000000003 0.040000000000000001 0 #
string_attrib-name_attrib-gen-attrib $-1 -1 $50 $26 $9 2 1 2 1 1 1 1 1 1 1 1 1 1 1 0 1 1 1 @12 transmission @4 gray #
shell $-1 -1 -1 $-1 $-1 $-1 $51 $-1 $27 T 0.029999999999999999 0.025000000000000001 0 0.089999999999999997 0.040000000000000001 0 #
string_attrib-name_attrib-gen-attrib $-1 -1 $52 $28 $4 2 1 2 1 1 1 1 1 1 1 1 1 1 1 0 1 1 1 @8 material @7 Silicon #
face $-1 -1 -1 $-1 $-1 $53 $29 $-1 $54 forward double out F F #
string_attrib-name_attrib-gen-attrib $-1 -1 $55 $30 $5 2 1 2 1 1 1 1 1 1 1 1 1 1 1 0 1 1 1 @8 material @4 SiO2 #
face $-1 -1 -1 $-1 $-1 $56 $31 $-1 $57 forward double out F F #
render-rbase-attrib $-1 -1 $-1 $32 $6 1 1 1 1 1 1 1 1 1 1 1 1 0 1 0 1 1 1 $58 $-1 0 0 #
face $-1 -1 -1 $-1 $-1 $59 $33 $-1 $60 forward double out F F #
render-rbase-attrib $-1 -1 $-1 $34 $7 1 1 1 1 1 1 1 1 1 1 1 1 0 1 0 1 1 1 $61 $-1 0 0 #
face $-1 -1 -1 $-1 $-1 $62 $35 $-1 $63 forward double out F F #
render-rbase-attrib $-1 -1 $-1 $36 $8 1 1 1 1 1 1 1 1 1 1 1 1 0 1 0 1 1 1 $64 $-1 0 0 #
face $-1 -1 -1 $-1 $-1 $65 $37 $-1 $66 forward double out F F #
render-rbase-attrib $-1 -1 $-1 $38 $9 1 1 1 1 1 1 1 1 1 1 1 1 0 1 0 1 1 1 $67 $-1 0 0 #
face $-1 -1 -1 $-1 $-1 $68 $39 $-1 $69 forward double out F F #
rgb_color-st-attrib $-1 -1 $-1 $40 $4 2 1 2 1 1 1 1 1 1 1 1 1 1 1 0 1 1 1 1 0.71372549019607845 0.75686274509803919 #
loop $-1 -1 -1 $-1 $-1 $70 $41 T 0 0 0 0.12 0.040000000000000001 0 unknown #
plane-surface $-1 -1 -1 $-1 0.059999999999999998 0.019999999999999997 0 0 0 1 1 0 0 forward_v I I I I #
rgb_color-st-attrib $-1 -1 $-1 $42 $5 2 1 2 1 1 1 1 1 1 1 1 1 1 1 0 1 1 1 0.49019607843137253 0.019607843137254902 0.019607843137254902 #
loop $-1 -1 -1 $-1 $-1 $71 $43 T 0.050000000000000003 0.040000000000000001 0 0.070000000000000007 0.050000000000000003 0 periphery $57 F #
plane-surface $-1 -1 -1 $-1 0.060000000000000012 0.044999999999999991 0 0 0 1 1 0 0 forward_v I I I I #
rh_material-rh_entity $-1 -1 4 0 @5 plain @5 color -4 0 1 0 @5 phong @14 ambient factor -2 1 @14 diffuse factor -2 0.75 @15 specular factor -2 0.5 @8 exponent -2 10 @14 specular color -4 1 1 1 @4 none @4 none #
loop $-1 -1 -1 $-1 $-1 $72 $45 T 0.070000000000000007 0.025000000000000001 0 0.12 0.040000000000000001 0 periphery $60 F #
plane-surface $-1 -1 -1 $-1 0.095000000000000001 0.032500000000000001 0 0 0 1 1 0 0 forward_v I I I I #
rh_material-rh_entity $-1 -1 4 0 @5 plain @5 color -4 0 1 0 @5 phong @14 ambient factor -2 1 @14 diffuse factor -2 0.75 @15 specular factor -2 0.5 @8 exponent -2 10 @14 specular color -4 1 1 1 @4 none @4 none #
loop $-1 -1 -1 $-1 $-1 $73 $47 T 0.070000000000000007 0.025000000000000001 0 0.12 0.040000000000000001 0 periphery $63 F #
plane-surface $-1 -1 -1 $-1 0.095000000000000001 0.032500000000000001 0 0 0 1 1 0 0 forward_v I I I I #
rh_material-rh_entity $-1 -1 4 0 @5 plain @5 color -4 0 1 0 @5 phong @14 ambient factor -2 1 @14 diffuse factor -2 0.75 @15 specular factor -2 0.5 @8 exponent -2 10 @14 specular color -4 1 1 1 @4 none @4 none #
loop $-1 -1 -1 $-1 $-1 $74 $49 T 0 0.025000000000000001 0 0.050000000000000003 0.040000000000000001 0 periphery $66 F #
plane-surface $-1 -1 -1 $-1 0.025000000000000001 0.032500000000000001 0 0 0 1 1 0 0 forward_v I I I I #
rh_material-rh_entity $-1 -1 4 0 @5 plain @5 color -4 0 1 0 @5 phong @14 ambient factor -2 1 @14 diffuse factor -2 0.75 @15 specular factor -2 0.5 @8 exponent -2 10 @14 specular color -4 1 1 1 @4 none @4 none #
loop $-1 -1 -1 $-1 $-1 $75 $51 T 0.029999999999999999 0.025000000000000001 0 0.089999999999999997 0.040000000000000001 0 periphery $69 F #
plane-surface $-1 -1 -1 $-1 0.060000000000000012 0.032500000000000001 0 0 0 1 1 0 0 forward_v I I I I #
coedge $-1 -1 -1 $-1 $76 $77 $-1 $78 forward $53 $-1 #
coedge $-1 -1 -1 $-1 $79 $80 $-1 $81 forward $56 $-1 #
coedge $-1 -1 -1 $-1 $82 $83 $-1 $84 forward $59 $-1 #
coedge $-1 -1 -1 $-1 $85 $86 $-1 $87 forward $62 $-1 #
coedge $-1 -1 -1 $-1 $88 $89 $-1 $90 forward $65 $-1 #
coedge $-1 -1 -1 $-1 $91 $92 $-1 $93 reversed $68 $-1 #
coedge $-1 -1 -1 $-1 $94 $70 $-1 $95 forward $53 $-1 #
coedge $-1 -1 -1 $-1 $70 $96 $-1 $97 forward $53 $-1 #
edge $-1 -1 -1 $-1 $98 0 $99 0.12 $70 $100 forward @7 unknown T 0 0 0 0.12 0 0 #
coedge $-1 -1 -1 $-1 $101 $71 $-1 $102 forward $56 $-1 #
coedge $-1 -1 -1 $-1 $71 $101 $-1 $103 forward $56 $-1 #
edge $-1 -1 -1 $-1 $104 0 $105 0.020000000000000004 $71 $106 forward @7 unknown T 0.050000000000000003 0.040000000000000001 0 0.070000000000000007 0.040000000000000001 0 #
coedge $-1 -1 -1 $-1 $107 $72 $-1 $108 forward $59 $-1 #
coedge $-1 -1 -1 $-1 $72 $107 $-1 $109 forward $59 $-1 #
edge $-1 -1 -1 $-1 $110 0 $111 0.049999999999999989 $72 $112 forward @7 unknown T 0.070000000000000007 0.025000000000000001 0 0.12 0.025000000000000001 0 #
coedge $-1 -1 -1 $-1 $113 $73 $-1 $114 forward $62 $-1 #
coedge $-1 -1 -1 $-1 $73 $113 $-1 $115 forward $62 $-1 #
edge $-1 -1 -1 $-1 $116 0 $117 0.049999999999999989 $73 $118 forward @7 unknown T 0.070000000000000007 0.025000000000000001 0 0.12 0.025000000000000001 0 #
coedge $-1 -1 -1 $-1 $119 $74 $-1 $120 forward $65 $-1 #
coedge $-1 -1 -1 $-1 $74 $119 $-1 $121 forward $65 $-1 #
edge $-1 -1 -1 $-1 $122 0 $123 0.050000000000000003 $74 $124 forward @7 unknown T 0 0.025000000000000001 0 0.050000000000000003 0.025000000000000001 0 #
coedge $-1 -1 -1 $-1 $125 $75 $-1 $126 reversed $68 $-1 #
coedge $-1 -1 -1 $-1 $75 $125 $-1 $127 reversed $68 $-1 #
edge $-1 -1 -1 $-1 $128 0 $129 0.014999999999999999 $75 $130 forward @7 unknown T 0.029999999999999999 0.025000000000000001 0 0.029999999999999999 0.040000000000000001 0 #
coedge $-1 -1 -1 $-1 $131 $76 $-1 $132 forward $53 $-1 #
edge $-1 -1 -1 $-1 $99 0 $133 0.040000000000000001 $76 $134 forward @7 unknown T 0.12 0 0 0.12 0.040000000000000001 0 #
coedge $-1 -1 -1 $-1 $77 $135 $-1 $136 forward $53 $-1 #
edge $-1 -1 -1 $-1 $137 0 $98 0.040000000000000001 $77 $138 forward @7 unknown T 0 0 0 0 0.040000000000000001 0 #
vertex $-1 -1 -1 $-1 $78 $139 #
vertex $-1 -1 -1 $-1 $78 $140 #
straight-curve $-1 -1 -1 $-1 0 0 0 1 0 0 I I #
coedge $-1 -1 -1 $-1 $80 $79 $-1 $141 forward $56 $-1 #
edge $-1 -1 -1 $-1 $105 0 $142 0.010000000000000002 $79 $143 forward @7 unknown T 0.070000000000000007 0.040000000000000001 0 0.070000000000000007 0.050000000000000003 0 #
edge $-1 -1 -1 $-1 $144 0 $104 0.010000000000000002 $80 $145 forward @7 unknown T 0.050000000000000003 0.040000000000000001 0 0.050000000000000003 0.050000000000000003 0 #
vertex $-1 -1 -1 $-1 $81 $146 #
vertex $-1 -1 -1 $-1 $81 $147 #
straight-curve $-1 -1 -1 $-1 0.050000000000000003 0.040000000000000001 0 1 0 0 I I #
coedge $-1 -1 -1 $-1 $83 $82 $-1 $148 forward $59 $-1 #
edge $-1 -1 -1 $-1 $111 0 $149 0.014999999999999999 $82 $150 forward @7 unknown T 0.12 0.025000000000000001 0 0.12 0.040000000000000001 0 #
edge $-1 -1 -1 $-1 $151 0 $110 0.014999999999999999 $83 $152 forward @7 unknown T 0.070000000000000007 0.025000000000000001 0 0.070000000000000007 0.040000000000000001 0 #
vertex $-1 -1 -1 $-1 $84 $153 #
vertex $-1 -1 -1 $-1 $84 $154 #
straight-curve $-1 -1 -1 $-1 0.070000000000000007 0.025000000000000001 0 1 0 0 I I #
coedge $-1 -1 -1 $-1 $86 $85 $-1 $155 forward $62 $-1 #
edge $-1 -1 -1 $-1 $117 0 $156 0.014999999999999999 $85 $157 forward @7 unknown T 0.12 0.025000000000000001 0 0.12 0.040000000000000001 0 #
edge $-1 -1 -1 $-1 $158 0 $116 0.014999999999999999 $86 $159 forward @7 unknown T 0.070000000000000007 0.025000000000000001 0 0.070000000000000007 0.040000000000000001 0 #
vertex $-1 -1 -1 $-1 $87 $160 #
vertex $-1 -1 -1 $-1 $87 $161 #
straight-curve $-1 -1 -1 $-1 0.070000000000000007 0.025000000000000001 0 1 0 0 I I #
coedge $-1 -1 -1 $-1 $89 $88 $-1 $162 forward $65 $-1 #
edge $-1 -1 -1 $-1 $123 0 $163 0.014999999999999999 $88 $164 forward @7 unknown T 0.050000000000000003 0.025000000000000001 0 0.050000000000000003 0.040000000000000001 0 #
edge $-1 -1 -1 $-1 $165 0 $122 0.014999999999999999 $89 $166 forward @7 unknown T 0 0.025000000000000001 0 0 0.040000000000000001 0 #
vertex $-1 -1 -1 $-1 $90 $167 #
vertex $-1 -1 -1 $-1 $90 $168 #
straight-curve $-1 -1 -1 $-1 0 0.025000000000000001 0 1 0 0 I I #
coedge $-1 -1 -1 $-1 $92 $91 $-1 $169 reversed $68 $-1 #
edge $-1 -1 -1 $-1 $170 0 $128 0.059999999999999998 $91 $171 forward @7 unknown T 0.029999999999999999 0.025000000000000001 0 0.089999999999999997 0.025000000000000001 0 #
edge $-1 -1 -1 $-1 $129 0 $172 0.059999999999999998 $92 $173 forward @7 unknown T 0.029999999999999999 0.040000000000000001 0 0.089999999999999997 0.040000000000000001 0 #
vertex $-1 -1 -1 $-1 $126 $174 #
vertex $-1 -1 -1 $-1 $127 $175 #
straight-curve $-1 -1 -1 $-1 0.029999999999999999 0.025000000000000001 0 0 1 0 I I #
coedge $-1 -1 -1 $-1 $176 $94 $-1 $177 forward $53 $-1 #
edge $178 -1 -1 $-1 $133 0 $179 0.039999999999999994 $94 $180 forward @7 unknown T 0.080000000000000002 0.040000000000000001 0 0.12 0.040000000000000001 0 #
vertex $181 -1 -1 $-1 $95 $182 #
straight-curve $-1 -1 -1 $-1 0.12 0 0 0 1 0 I I #
coedge $-1 -1 -1 $-1 $96 $176 $-1 $183 forward $53 $-1 #
edge $184 -1 -1 $-1 $185 0.079999999999999988 $137 0.12 $96 $186 forward @7 unknown T 0 0.040000000000000001 0 0.040000000000000008 0.040000000000000001 0 #
vertex $187 -1 -1 $-1 $136 $188 #
straight-curve $-1 -1 -1 $-1 0 0.040000000000000001 0 0 -1 0 I I #
point $-1 -1 -1 $-1 0 0 0 #
point $-1 -1 -1 $-1 0.12 0 0 #
edge $189 -1 -1 $-1 $142 0 $144 0.020000000000000004 $101 $190 forward @7 unknown T 0.050000000000000003 0.050000000000000003 0 0.070000000000000007 0.050000000000000003 0 #
vertex $191 -1 -1 $-1 $102 $192 #
straight-curve $-1 -1 -1 $-1 0.070000000000000007 0.040000000000000001 0 0 1 0 I I #
vertex $193 -1 -1 $-1 $141 $194 #
straight-curve $-1 -1 -1 $-1 0.050000000000000003 0.050000000000000003 0 0 -1 0 I I #
point $-1 -1 -1 $-1 0.050000000000000003 0.040000000000000001 0 #
point $-1 -1 -1 $-1 0.070000000000000007 0.040000000000000001 0 #
edge $-1 -1 -1 $-1 $149 0 $151 0.049999999999999989 $107 $195 forward @7 unknown T 0.070000000000000007 0.040000000000000001 0 0.12 0.040000000000000001 0 #
vertex $-1 -1 -1 $-1 $108 $196 #
straight-curve $-1 -1 -1 $-1 0.12 0.025000000000000001 0 0 1 0 I I #
vertex $-1 -1 -1 $-1 $148 $197 #
straight-curve $-1 -1 -1 $-1 0.070000000000000007 0.040000000000000001 0 0 -1 0 I I #
point $-1 -1 -1 $-1 0.070000000000000007 0.025000000000000001 0 #
point $-1 -1 -1 $-1 0.12 0.025000000000000001 0 #
edge $-1 -1 -1 $-1 $156 0 $158 0.049999999999999989 $113 $198 forward @7 unknown T 0.070000000000000007 0.040000000000000001 0 0.12 0.040000000000000001 0 #
vertex $-1 -1 -1 $-1 $114 $199 #
straight-curve $-1 -1 -1 $-1 0.12 0.025000000000000001 0 0 1 0 I I #
vertex $-1 -1 -1 $-1 $155 $200 #
straight-curve $-1 -1 -1 $-1 0.070000000000000007 0.040000000000000001 0 0 -1 0 I I #
point $-1 -1 -1 $-1 0.070000000000000007 0.025000000000000001 0 #
point $-1 -1 -1 $-1 0.12 0.025000000000000001 0 #
edge $-1 -1 -1 $-1 $163 0 $165 0.050000000000000003 $119 $201 forward @7 unknown T 0 0.040000000000000001 0 0.050000000000000003 0.040000000000000001 0 #
vertex $-1 -1 -1 $-1 $120 $202 #
straight-curve $-1 -1 -1 $-1 0.050000000000000003 0.025000000000000001 0 0 1 0 I I #
vertex $-1 -1 -1 $-1 $162 $203 #
straight-curve $-1 -1 -1 $-1 0 0.040000000000000001 0 0 -1 0 I I #
point $-1 -1 -1 $-1 0 0.025000000000000001 0 #
point $-1 -1 -1 $-1 0.050000000000000003 0.025000000000000001 0 #
edge $-1 -1 -1 $-1 $172 0 $170 0.014999999999999999 $125 $204 forward @7 unknown T 0.089999999999999997 0.025000000000000001 0 0.089999999999999997 0.040000000000000001 0 #
vertex $-1 -1 -1 $-1 $169 $205 #
straight-curve $-1 -1 -1 $-1 0.089999999999999997 0.025000000000000001 0 -1 0 0 I I #
vertex $-1 -1 -1 $-1 $127 $206 #
straight-curve $-1 -1 -1 $-1 0.029999999999999999 0.040000000000000001 0 1 0 0 I I #
point $-1 -1 -1 $-1 0.029999999999999999 0.025000000000000001 0 #
point $-1 -1 -1 $-1 0.029999999999999999 0.040000000000000001 0 #
coedge $-1 -1 -1 $-1 $135 $131 $-1 $207 forward $53 $-1 #
edge $-1 -1 -1 $-1 $179 0.039999999999999994 $208 0.049999999999999989 $131 $209 forward @7 unknown T 0.070000000000000007 0.040000000000000001 0 0.080000000000000002 0.040000000000000001 0 #
no_merge_attribute-st-attrib $-1 -1 $210 $-1 $132 1 1 1 1 1 1 1 1 1 1 1 1 1 1 0 1 1 1 #
vertex $211 -1 -1 $-1 $177 $212 #
straight-curve $-1 -1 -1 $-1 0.12 0.040000000000000001 0 -1 0 0 I I #
no_merge_attribute-st-attrib $-1 -1 $213 $-1 $133 1 1 1 1 1 1 1 1 1 1 1 1 1 1 0 1 1 1 #
point $-1 -1 -1 $-1 0.12 0.040000000000000001 0 #
edge $-1 -1 -1 $-1 $214 0.069999999999999993 $185 0.079999999999999988 $135 $180 forward @7 unknown T 0.040000000000000008 0.040000000000000001 0 0.050000000000000003 0.040000000000000001 0 #
no_merge_attribute-st-attrib $-1 -1 $215 $-1 $136 1 1 1 1 1 1 1 1 1 1 1 1 1 1 0 1 1 1 #
vertex $216 -1 -1 $-1 $136 $217 #
straight-curve $-1 -1 -1 $-1 0.12 0.040000000000000001 0 -1 0 0 I I #
no_merge_attribute-st-attrib $-1 -1 $-1 $-1 $137 1 1 1 1 1 1 1 1 1 1 1 1 1 1 0 1 1 1 #
point $-1 -1 -1 $-1 0 0.040000000000000001 0 #
no_merge_attribute-st-attrib $-1 -1 $218 $-1 $141 1 1 1 1 1 1 1 1 1 1 1 1 1 1 0 1 1 1 #
straight-curve $-1 -1 -1 $-1 0.070000000000000007 0.050000000000000003 0 -1 0 0 I I #
no_merge_attribute-st-attrib $-1 -1 $219 $-1 $142 1 1 1 1 1 1 1 1 1 1 1 1 1 1 0 1 1 1 #
point $-1 -1 -1 $-1 0.070000000000000007 0.050000000000000003 0 #
no_merge_attribute-st-attrib $-1 -1 $220 $-1 $144 1 1 1 1 1 1 1 1 1 1 1 1 1 1 0 1 1 1 #
point $-1 -1 -1 $-1 0.050000000000000003 0.050000000000000003 0 #
straight-curve $-1 -1 -1 $-1 0.12 0.040000000000000001 0 -1 0 0 I I #
point $-1 -1 -1 $-1 0.12 0.040000000000000001 0 #
point $-1 -1 -1 $-1 0.070000000000000007 0.040000000000000001 0 #
straight-curve $-1 -1 -1 $-1 0.12 0.040000000000000001 0 -1 0 0 I I #
point $-1 -1 -1 $-1 0.12 0.040000000000000001 0 #
point $-1 -1 -1 $-1 0.070000000000000007 0.040000000000000001 0 #
straight-curve $-1 -1 -1 $-1 0.050000000000000003 0.040000000000000001 0 -1 0 0 I I #
point $-1 -1 -1 $-1 0.050000000000000003 0.040000000000000001 0 #
point $-1 -1 -1 $-1 0 0.040000000000000001 0 #
straight-curve $-1 -1 -1 $-1 0.089999999999999997 0.040000000000000001 0 0 -1 0 I I #
point $-1 -1 -1 $-1 0.089999999999999997 0.025000000000000001 0 #
point $-1 -1 -1 $-1 0.089999999999999997 0.040000000000000001 0 #
edge $-1 -1 -1 $-1 $208 0.049999999999999989 $214 0.069999999999999993 $176 $221 forward @7 unknown T 0.050000000000000003 0.040000000000000001 0 0.070000000000000007 0.040000000000000001 0 #
vertex $-1 -1 -1 $-1 $207 $222 #
straight-curve $-1 -1 -1 $-1 0.12 0.040000000000000001 0 -1 0 0 I I #
no_merge_attribute-st-attrib $-1 -1 $223 $178 $132 1 1 1 1 1 1 1 1 1 1 1 1 1 1 0 1 1 1 #
no_merge_attribute-st-attrib $-1 -1 $224 $-1 $179 1 1 1 1 1 1 1 1 1 1 1 1 1 1 0 1 1 1 #
point $-1 -1 -1 $-1 0.080000000000000002 0.040000000000000001 0 #
no_merge_attribute-st-attrib $-1 -1 $-1 $181 $133 1 1 1 1 1 1 1 1 1 1 1 1 1 1 0 1 1 1 #
vertex $-1 -1 -1 $-1 $183 $225 #
no_merge_attribute-st-attrib $-1 -1 $226 $184 $136 1 1 1 1 1 1 1 1 1 1 1 1 1 1 0 1 1 1 #
no_merge_attribute-st-attrib $-1 -1 $-1 $-1 $185 1 1 1 1 1 1 1 1 1 1 1 1 1 1 0 1 1 1 #
point $-1 -1 -1 $-1 0.040000000000000008 0.040000000000000001 0 #
no_merge_attribute-st-attrib $-1 -1 $227 $189 $141 1 1 1 1 1 1 1 1 1 1 1 1 1 1 0 1 1 1 #
no_merge_attribute-st-attrib $-1 -1 $228 $191 $142 1 1 1 1 1 1 1 1 1 1 1 1 1 1 0 1 1 1 #
no_merge_attribute-st-attrib $-1 -1 $229 $193 $144 1 1 1 1 1 1 1 1 1 1 1 1 1 1 0 1 1 1 #
straight-curve $-1 -1 -1 $-1 0.12 0.040000000000000001 0 -1 0 0 I I #
point $-1 -1 -1 $-1 0.070000000000000007 0.040000000000000001 0 #
no_merge_attribute-st-attrib $-1 -1 $230 $210 $132 1 1 1 1 1 1 1 1 1 1 1 1 1 1 0 1 1 1 #
no_merge_attribute-st-attrib $-1 -1 $-1 $211 $179 1 1 1 1 1 1 1 1 1 1 1 1 1 1 0 1 1 1 #
point $-1 -1 -1 $-1 0.050000000000000003 0.040000000000000001 0 #
string_attrib-name_attrib-gen-attrib $-1 -1 $-1 $215 $136 2 4 2 1 1 1 1 1 1 1 1 1 1 1 0 1 1 1 @10 2d-contact @6 source #
no_merge_attribute-st-attrib $-1 -1 $231 $218 $141 1 1 1 1 1 1 1 1 1 1 1 1 1 1 0 1 1 1 #
no_merge_attribute-st-attrib $-1 -1 $-1 $219 $142 1 1 1 1 1 1 1 1 1 1 1 1 1 1 0 1 1 1 #
no_merge_attribute-st-attrib $-1 -1 $-1 $220 $144 1 1 1 1 1 1 1 1 1 1 1 1 1 1 0 1 1 1 #
string_attrib-name_attrib-gen-attrib $-1 -1 $-1 $223 $132 2 4 2 1 1 1 1 1 1 1 1 1 1 1 0 1 1 1 @10 2d-contact @5 drain #
no_merge_attribute-st-attrib $-1 -1 $232 $227 $141 1 1 1 1 1 1 1 1 1 1 1 1 1 1 0 1 1 1 #
string_attrib-name_attrib-gen-attrib $-1 -1 $-1 $231 $141 2 4 2 1 1 1 1 1 1 1 1 1 1 1 0 1 1 1 @10 2d-contact @4 gate #
End-of-ACIS-data 